{
    "asset" : {
        "generator" : "Khronos glTF Blender I/O v1.3.48",
        "version" : "2.0"
    },
    "scene" : 0,
    "scenes" : [
        {
            "name" : "Scene",
            "nodes" : [
                0,
                1
            ]
        }
    ],
    "nodes" : [
        {
            "mesh" : 0,
            "name" : "Mesh_0.003",
            "rotation" : [
                -0.7067427635192871,
                -0.022687600925564766,
                0.022687600925564766,
                0.7067427635192871
            ],
            "translation" : [
                0.1801527738571167,
                12.725594520568848,
                21.164400100708008
            ]
        },
        {
            "mesh" : 1,
            "name" : "Mesh_1.001",
            "rotation" : [
                -0.7067427635192871,
                -0.022687600925564766,
                0.022687600925564766,
                0.7067427635192871
            ],
            "translation" : [
                0.34642481803894043,
                28.15130615234375,
                21.528074264526367
            ]
        }
    ],
    "materials" : [
        {
            "alphaMode" : "BLEND",
            "doubleSided" : true,
            "emissiveFactor" : [
                0.017149390652775764,
                0.017149390652775764,
                0.017149390652775764
            ],
            "name" : "Material.023",
            "pbrMetallicRoughness" : {
                "baseColorFactor" : [
                    1,
                    1,
                    1,
                    0.020007621496915817
                ],
                "metallicFactor" : 0.27610519528388977,
                "roughnessFactor" : 0
            }
        },
        {
            "doubleSided" : true,
            "emissiveFactor" : [
                0,
                0,
                0
            ],
            "name" : "Material.024",
            "pbrMetallicRoughness" : {
                "baseColorFactor" : [
                    0.04742753133177757,
                    0.34603241086006165,
                    0.4219779074192047,
                    1
                ],
                "metallicFactor" : 0,
                "roughnessFactor" : 0.4651295840740204
            }
        }
    ],
    "meshes" : [
        {
            "name" : "Mesh_0.003",
            "primitives" : [
                {
                    "attributes" : {
                        "POSITION" : 0,
                        "NORMAL" : 1,
                        "TEXCOORD_0" : 2
                    },
                    "indices" : 3,
                    "material" : 0
                }
            ]
        },
        {
            "name" : "Mesh_1.001",
            "primitives" : [
                {
                    "attributes" : {
                        "POSITION" : 4,
                        "NORMAL" : 5,
                        "TEXCOORD_0" : 6
                    },
                    "indices" : 7,
                    "material" : 1
                }
            ]
        }
    ],
    "accessors" : [
        {
            "bufferView" : 0,
            "componentType" : 5126,
            "count" : 4612,
            "max" : [
                5.118359565734863,
                4.738263130187988,
                15.723990440368652
            ],
            "min" : [
                -5.275629997253418,
                -4.688823699951172,
                -12.63077163696289
            ],
            "type" : "VEC3"
        },
        {
            "bufferView" : 1,
            "componentType" : 5126,
            "count" : 4612,
            "type" : "VEC3"
        },
        {
            "bufferView" : 2,
            "componentType" : 5126,
            "count" : 4612,
            "type" : "VEC2"
        },
        {
            "bufferView" : 3,
            "componentType" : 5123,
            "count" : 25716,
            "type" : "SCALAR"
        },
        {
            "bufferView" : 4,
            "componentType" : 5126,
            "count" : 896,
            "max" : [
                2.063185691833496,
                2.032078266143799,
                1.1396446228027344
            ],
            "min" : [
                -2.0640296936035156,
                -2.0305895805358887,
                -0.9805984497070312
            ],
            "type" : "VEC3"
        },
        {
            "bufferView" : 5,
            "componentType" : 5126,
            "count" : 896,
            "type" : "VEC3"
        },
        {
            "bufferView" : 6,
            "componentType" : 5126,
            "count" : 896,
            "type" : "VEC2"
        },
        {
            "bufferView" : 7,
            "componentType" : 5123,
            "count" : 5172,
            "type" : "SCALAR"
        }
    ],
    "bufferViews" : [
        {
            "buffer" : 0,
            "byteLength" : 55344,
            "byteOffset" : 0
        },
        {
            "buffer" : 0,
            "byteLength" : 55344,
            "byteOffset" : 55344
        },
        {
            "buffer" : 0,
            "byteLength" : 36896,
            "byteOffset" : 110688
        },
        {
            "buffer" : 0,
            "byteLength" : 51432,
            "byteOffset" : 147584
        },
        {
            "buffer" : 0,
            "byteLength" : 10752,
            "byteOffset" : 199016
        },
        {
            "buffer" : 0,
            "byteLength" : 10752,
            "byteOffset" : 209768
        },
        {
            "buffer" : 0,
            "byteLength" : 7168,
            "byteOffset" : 220520
        },
        {
            "buffer" : 0,
            "byteLength" : 10344,
            "byteOffset" : 227688
        }
    ],
    "buffers" : [
        {
            "byteLength" : 238032,
            "uri" : "data:application/octet-stream;base64,"
        }
    ]
}
