{
    "asset" : {
        "generator" : "Khronos glTF Blender I/O v1.3.48",
        "version" : "2.0"
    },
    "scene" : 0,
    "scenes" : [
        {
            "name" : "Scene",
            "nodes" : [
                7
            ]
        }
    ],
    "nodes" : [
        {
            "mesh" : 0,
            "name" : "Cube_back_0"
        },
        {
            "mesh" : 1,
            "name" : "Cube_screen_0"
        },
        {
            "mesh" : 2,
            "name" : "Cube_side_0"
        },
        {
            "children" : [
                0,
                1,
                2
            ],
            "name" : "Cube",
            "rotation" : [
                -0.7071068286895752,
                0,
                0,
                0.7071067094802856
            ],
            "scale" : [
                44.74007034301758,
                21.862577438354492,
                44.74007034301758
            ],
            "translation" : [
                -89.00847625732422,
                -25.511980056762695,
                -3.4277597933396464e-06
            ]
        },
        {
            "children" : [
                3
            ],
            "name" : "RootNode"
        },
        {
            "children" : [
                4
            ],
            "name" : "bf24c89b95fc492f9ba5e652e15ec051.fbx",
            "rotation" : [
                0.7071068286895752,
                0,
                0,
                0.7071068286895752
            ]
        },
        {
            "children" : [
                5
            ],
            "name" : "RootNode (model correction matrix)"
        },
        {
            "children" : [
                6
            ],
            "name" : "RootNode (gltf orientation matrix)",
            "rotation" : [
                -0.7071068286895752,
                0,
                0,
                0.7071068286895752
            ]
        }
    ],
    "materials" : [
        {
            "doubleSided" : true,
            "emissiveFactor" : [
                0,
                0,
                0
            ],
            "name" : "back",
            "pbrMetallicRoughness" : {
                "baseColorTexture" : {
                    "index" : 0,
                    "texCoord" : 0
                },
                "metallicFactor" : 0,
                "roughnessFactor" : 0.849056601524353
            }
        },
        {
            "doubleSided" : true,
            "emissiveFactor" : [
                1,
                1,
                1
            ],
            "emissiveTexture" : {
                "index" : 1,
                "texCoord" : 0
            },
            "name" : "screen",
            "pbrMetallicRoughness" : {
                "baseColorTexture" : {
                    "index" : 2,
                    "texCoord" : 0
                },
                "metallicFactor" : 0.4716981053352356,
                "roughnessFactor" : 0
            }
        },
        {
            "doubleSided" : true,
            "emissiveFactor" : [
                0,
                0,
                0
            ],
            "name" : "side",
            "pbrMetallicRoughness" : {
                "baseColorTexture" : {
                    "index" : 3,
                    "texCoord" : 0
                },
                "metallicFactor" : 0,
                "roughnessFactor" : 0.4088050425052643
            }
        }
    ],
    "meshes" : [
        {
            "name" : "Cube_back_0",
            "primitives" : [
                {
                    "attributes" : {
                        "POSITION" : 0,
                        "NORMAL" : 1,
                        "TEXCOORD_0" : 2
                    },
                    "indices" : 3,
                    "material" : 0
                }
            ]
        },
        {
            "name" : "Cube_screen_0",
            "primitives" : [
                {
                    "attributes" : {
                        "POSITION" : 4,
                        "NORMAL" : 5,
                        "TEXCOORD_0" : 6
                    },
                    "indices" : 7,
                    "material" : 1
                }
            ]
        },
        {
            "name" : "Cube_side_0",
            "primitives" : [
                {
                    "attributes" : {
                        "POSITION" : 8,
                        "NORMAL" : 9,
                        "TEXCOORD_0" : 10
                    },
                    "indices" : 11,
                    "material" : 2
                }
            ]
        }
    ],
    "textures" : [
        {
            "source" : 0
        },
        {
            "source" : 0
        },
        {
            "source" : 0
        },
        {
            "source" : 0
        }
    ],
    "images" : [
        {
            "bufferView" : 4,
            "mimeType" : "image/jpeg",
            "name" : "back_baseColor"
        }
    ],
    "accessors" : [
        {
            "bufferView" : 0,
            "componentType" : 5126,
            "count" : 1691,
            "max" : [
                1.8352489471435547,
                1.0633267164230347,
                5.3424224853515625
            ],
            "min" : [
                -2.160724401473999,
                -0.9999996423721313,
                -4.095212936401367
            ],
            "type" : "VEC3"
        },
        {
            "bufferView" : 1,
            "componentType" : 5126,
            "count" : 1691,
            "type" : "VEC3"
        },
        {
            "bufferView" : 2,
            "componentType" : 5126,
            "count" : 1691,
            "type" : "VEC2"
        },
        {
            "bufferView" : 3,
            "componentType" : 5123,
            "count" : 5937,
            "type" : "SCALAR"
        },
        {
            "bufferView" : 5,
            "componentType" : 5126,
            "count" : 2015,
            "max" : [
                1.2500419616699219,
                -0.8121558427810669,
                2.937201738357544
            ],
            "min" : [
                -1.6150338649749756,
                -0.9275739789009094,
                0.8559543490409851
            ],
            "type" : "VEC3"
        },
        {
            "bufferView" : 6,
            "componentType" : 5126,
            "count" : 2015,
            "type" : "VEC3"
        },
        {
            "bufferView" : 7,
            "componentType" : 5126,
            "count" : 2015,
            "type" : "VEC2"
        },
        {
            "bufferView" : 8,
            "componentType" : 5123,
            "count" : 11094,
            "type" : "SCALAR"
        },
        {
            "bufferView" : 9,
            "componentType" : 5126,
            "count" : 783,
            "max" : [
                1.86678946018219,
                1.0000004768371582,
                5.429647922515869
            ],
            "min" : [
                -2.192507266998291,
                -0.9999995827674866,
                -4.161408424377441
            ],
            "type" : "VEC3"
        },
        {
            "bufferView" : 10,
            "componentType" : 5126,
            "count" : 783,
            "type" : "VEC3"
        },
        {
            "bufferView" : 11,
            "componentType" : 5126,
            "count" : 783,
            "type" : "VEC2"
        },
        {
            "bufferView" : 12,
            "componentType" : 5123,
            "count" : 2100,
            "type" : "SCALAR"
        }
    ],
    "bufferViews" : [
        {
            "buffer" : 0,
            "byteLength" : 20292,
            "byteOffset" : 0
        },
        {
            "buffer" : 0,
            "byteLength" : 20292,
            "byteOffset" : 20292
        },
        {
            "buffer" : 0,
            "byteLength" : 13528,
            "byteOffset" : 40584
        },
        {
            "buffer" : 0,
            "byteLength" : 11874,
            "byteOffset" : 54112
        },
        {
            "buffer" : 0,
            "byteLength" : 101553,
            "byteOffset" : 65988
        },
        {
            "buffer" : 0,
            "byteLength" : 24180,
            "byteOffset" : 167544
        },
        {
            "buffer" : 0,
            "byteLength" : 24180,
            "byteOffset" : 191724
        },
        {
            "buffer" : 0,
            "byteLength" : 16120,
            "byteOffset" : 215904
        },
        {
            "buffer" : 0,
            "byteLength" : 22188,
            "byteOffset" : 232024
        },
        {
            "buffer" : 0,
            "byteLength" : 9396,
            "byteOffset" : 254212
        },
        {
            "buffer" : 0,
            "byteLength" : 9396,
            "byteOffset" : 263608
        },
        {
            "buffer" : 0,
            "byteLength" : 6264,
            "byteOffset" : 273004
        },
        {
            "buffer" : 0,
            "byteLength" : 4200,
            "byteOffset" : 279268
        }
    ],
    "buffers" : [
        {
            "byteLength" : 283468,
            "uri" : "data:application/octet-stream;base64,"
        }
    ]
}
