{
    "asset" : {
        "generator" : "Khronos glTF Blender I/O v1.3.48",
        "version" : "2.0"
    },
    "scene" : 0,
    "scenes" : [
        {
            "name" : "Scene",
            "nodes" : [
                1,
                3,
                4
            ]
        }
    ],
    "nodes" : [
        {
            "mesh" : 0,
            "name" : "body_lambert2_0"
        },
        {
            "children" : [
                0
            ],
            "name" : "body",
            "scale" : [
                3.274862051010132,
                0.7940597534179688,
                1.2715144157409668
            ],
            "translation" : [
                0,
                0.7153126001358032,
                0
            ]
        },
        {
            "mesh" : 1,
            "name" : "pCylinder2_lambert1_0"
        },
        {
            "children" : [
                2
            ],
            "name" : "pCylinder2",
            "rotation" : [
                -0.7071068286895752,
                0,
                0,
                0.7071068286895752
            ],
            "scale" : [
                0.39684680104255676,
                0.23117847740650177,
                0.39684680104255676
            ],
            "translation" : [
                1.1050620079040527,
                0.3672804832458496,
                0.5302323698997498
            ]
        },
        {
            "mesh" : 2,
            "name" : "pCylinder10_lambert1_0"
        }
    ],
    "materials" : [
        {
            "doubleSided" : true,
            "emissiveFactor" : [
                0,
                0,
                0
            ],
            "name" : "lambert2",
            "pbrMetallicRoughness" : {
                "baseColorFactor" : [
                    0.4106999933719635,
                    0.04019999876618385,
                    0.04019999876618385,
                    1
                ],
                "metallicFactor" : 0,
                "roughnessFactor" : 0.6000000238418579
            }
        },
        {
            "doubleSided" : true,
            "emissiveFactor" : [
                0,
                0,
                0
            ],
            "name" : "lambert1",
            "pbrMetallicRoughness" : {
                "baseColorFactor" : [
                    0.10520000010728836,
                    0.10790000110864639,
                    0.38350000977516174,
                    1
                ],
                "metallicFactor" : 0,
                "roughnessFactor" : 0.6000000238418579
            }
        }
    ],
    "meshes" : [
        {
            "name" : "body_lambert2_0",
            "primitives" : [
                {
                    "attributes" : {
                        "POSITION" : 0,
                        "NORMAL" : 1,
                        "TEXCOORD_0" : 2
                    },
                    "indices" : 3,
                    "material" : 0
                }
            ]
        },
        {
            "name" : "pCylinder2_lambert1_0",
            "primitives" : [
                {
                    "attributes" : {
                        "POSITION" : 4,
                        "NORMAL" : 5,
                        "TEXCOORD_0" : 6
                    },
                    "indices" : 7,
                    "material" : 1
                }
            ]
        },
        {
            "name" : "pCylinder10_lambert1_0",
            "primitives" : [
                {
                    "attributes" : {
                        "POSITION" : 8,
                        "NORMAL" : 9,
                        "TEXCOORD_0" : 10
                    },
                    "indices" : 11,
                    "material" : 1
                }
            ]
        }
    ],
    "accessors" : [
        {
            "bufferView" : 0,
            "componentType" : 5126,
            "count" : 994,
            "max" : [
                0.5451021194458008,
                1.3043462038040161,
                0.5010714530944824
            ],
            "min" : [
                -0.5195125937461853,
                -0.499999076128006,
                -0.5010714530944824
            ],
            "type" : "VEC3"
        },
        {
            "bufferView" : 1,
            "componentType" : 5126,
            "count" : 994,
            "type" : "VEC3"
        },
        {
            "bufferView" : 2,
            "componentType" : 5126,
            "count" : 994,
            "type" : "VEC2"
        },
        {
            "bufferView" : 3,
            "componentType" : 5123,
            "count" : 3804,
            "type" : "SCALAR"
        },
        {
            "bufferView" : 4,
            "componentType" : 5126,
            "count" : 349,
            "max" : [
                0.9999997615814209,
                0.9999998807907104,
                1.000000238418579
            ],
            "min" : [
                -1.0000017881393433,
                -1.000000238418579,
                -1.0000004768371582
            ],
            "type" : "VEC3"
        },
        {
            "bufferView" : 5,
            "componentType" : 5126,
            "count" : 349,
            "type" : "VEC3"
        },
        {
            "bufferView" : 6,
            "componentType" : 5126,
            "count" : 349,
            "type" : "VEC2"
        },
        {
            "bufferView" : 7,
            "componentType" : 5123,
            "count" : 1320,
            "type" : "SCALAR"
        },
        {
            "bufferView" : 8,
            "componentType" : 5126,
            "count" : 1401,
            "max" : [
                1.5019094944000244,
                0.7641274929046631,
                0.7614108920097351
            ],
            "min" : [
                -1.4831531047821045,
                -0.02956649661064148,
                -0.7646007537841797
            ],
            "type" : "VEC3"
        },
        {
            "bufferView" : 9,
            "componentType" : 5126,
            "count" : 1401,
            "type" : "VEC3"
        },
        {
            "bufferView" : 10,
            "componentType" : 5126,
            "count" : 1401,
            "type" : "VEC2"
        },
        {
            "bufferView" : 11,
            "componentType" : 5123,
            "count" : 5280,
            "type" : "SCALAR"
        }
    ],
    "bufferViews" : [
        {
            "buffer" : 0,
            "byteLength" : 11928,
            "byteOffset" : 0
        },
        {
            "buffer" : 0,
            "byteLength" : 11928,
            "byteOffset" : 11928
        },
        {
            "buffer" : 0,
            "byteLength" : 7952,
            "byteOffset" : 23856
        },
        {
            "buffer" : 0,
            "byteLength" : 7608,
            "byteOffset" : 31808
        },
        {
            "buffer" : 0,
            "byteLength" : 4188,
            "byteOffset" : 39416
        },
        {
            "buffer" : 0,
            "byteLength" : 4188,
            "byteOffset" : 43604
        },
        {
            "buffer" : 0,
            "byteLength" : 2792,
            "byteOffset" : 47792
        },
        {
            "buffer" : 0,
            "byteLength" : 2640,
            "byteOffset" : 50584
        },
        {
            "buffer" : 0,
            "byteLength" : 16812,
            "byteOffset" : 53224
        },
        {
            "buffer" : 0,
            "byteLength" : 16812,
            "byteOffset" : 70036
        },
        {
            "buffer" : 0,
            "byteLength" : 11208,
            "byteOffset" : 86848
        },
        {
            "buffer" : 0,
            "byteLength" : 10560,
            "byteOffset" : 98056
        }
    ],
    "buffers" : [
        {
            "byteLength" : 108616,
            "uri" : "data:application/octet-stream;base64,"
        }
    ]
}
