{
    "asset" : {
        "generator" : "Khronos glTF Blender I/O v1.3.48",
        "version" : "2.0"
    },
    "scene" : 0,
    "scenes" : [
        {
            "name" : "Scene",
            "nodes" : [
                4
            ]
        }
    ],
    "nodes" : [
        {
            "mesh" : 0,
            "name" : "Mesh_0.006"
        },
        {
            "mesh" : 1,
            "name" : "Mesh_1.002"
        },
        {
            "children" : [
                0,
                1
            ],
            "name" : "123.obj.cleaner.materialmerger.gles"
        },
        {
            "children" : [
                2
            ],
            "name" : "RootNode (model correction matrix)"
        },
        {
            "children" : [
                3
            ],
            "name" : "RootNode (gltf orientation matrix)",
            "rotation" : [
                -0.7071068286895752,
                0,
                0,
                0.7071068286895752
            ]
        }
    ],
    "materials" : [
        {
            "doubleSided" : true,
            "emissiveFactor" : [
                0,
                0,
                0
            ],
            "name" : "aiStandardSurface1SG",
            "pbrMetallicRoughness" : {
                "baseColorFactor" : [
                    1,
                    0,
                    0,
                    1
                ],
                "metallicFactor" : 0,
                "roughnessFactor" : 1
            }
        },
        {
            "alphaMode" : "BLEND",
            "doubleSided" : true,
            "emissiveFactor" : [
                0,
                0,
                0
            ],
            "name" : "aiStandardSurface2SG",
            "pbrMetallicRoughness" : {
                "baseColorFactor" : [
                    1,
                    0,
                    0,
                    0.4346417784690857
                ],
                "metallicFactor" : 0,
                "roughnessFactor" : 1
            }
        }
    ],
    "meshes" : [
        {
            "name" : "Mesh_0.006",
            "primitives" : [
                {
                    "attributes" : {
                        "POSITION" : 0,
                        "NORMAL" : 1,
                        "TEXCOORD_0" : 2
                    },
                    "indices" : 3,
                    "material" : 0
                }
            ]
        },
        {
            "name" : "Mesh_1.002",
            "primitives" : [
                {
                    "attributes" : {
                        "POSITION" : 4,
                        "NORMAL" : 5,
                        "TEXCOORD_0" : 6
                    },
                    "indices" : 7,
                    "material" : 1
                }
            ]
        }
    ],
    "accessors" : [
        {
            "bufferView" : 0,
            "componentType" : 5126,
            "count" : 987,
            "max" : [
                1.9741129875183105,
                1.9695099592208862,
                0.151855006814003
            ],
            "min" : [
                -1.9741129875183105,
                -1.9695099592208862,
                -0.151855006814003
            ],
            "type" : "VEC3"
        },
        {
            "bufferView" : 1,
            "componentType" : 5126,
            "count" : 987,
            "type" : "VEC3"
        },
        {
            "bufferView" : 2,
            "componentType" : 5126,
            "count" : 987,
            "type" : "VEC2"
        },
        {
            "bufferView" : 3,
            "componentType" : 5123,
            "count" : 5520,
            "type" : "SCALAR"
        },
        {
            "bufferView" : 4,
            "componentType" : 5126,
            "count" : 1826,
            "max" : [
                1.7043579816818237,
                1.7043579816818237,
                0.943602979183197
            ],
            "min" : [
                -1.7043579816818237,
                -1.7043579816818237,
                -0.06536400318145752
            ],
            "type" : "VEC3"
        },
        {
            "bufferView" : 5,
            "componentType" : 5126,
            "count" : 1826,
            "type" : "VEC3"
        },
        {
            "bufferView" : 6,
            "componentType" : 5126,
            "count" : 1826,
            "type" : "VEC2"
        },
        {
            "bufferView" : 7,
            "componentType" : 5123,
            "count" : 9792,
            "type" : "SCALAR"
        }
    ],
    "bufferViews" : [
        {
            "buffer" : 0,
            "byteLength" : 11844,
            "byteOffset" : 0
        },
        {
            "buffer" : 0,
            "byteLength" : 11844,
            "byteOffset" : 11844
        },
        {
            "buffer" : 0,
            "byteLength" : 7896,
            "byteOffset" : 23688
        },
        {
            "buffer" : 0,
            "byteLength" : 11040,
            "byteOffset" : 31584
        },
        {
            "buffer" : 0,
            "byteLength" : 21912,
            "byteOffset" : 42624
        },
        {
            "buffer" : 0,
            "byteLength" : 21912,
            "byteOffset" : 64536
        },
        {
            "buffer" : 0,
            "byteLength" : 14608,
            "byteOffset" : 86448
        },
        {
            "buffer" : 0,
            "byteLength" : 19584,
            "byteOffset" : 101056
        }
    ],
    "buffers" : [
        {
            "byteLength" : 120640,
            "uri" : "data:application/octet-stream;base64,"
        }
    ]
}
