{
    "asset" : {
        "generator" : "Khronos glTF Blender I/O v1.3.48",
        "version" : "2.0"
    },
    "scene" : 0,
    "scenes" : [
        {
            "name" : "Scene",
            "nodes" : [
                3
            ]
        }
    ],
    "nodes" : [
        {
            "mesh" : 0,
            "name" : "Mesh_0.009"
        },
        {
            "children" : [
                0
            ],
            "name" : "Calculator.obj.cleaner.materialmerger.gles"
        },
        {
            "children" : [
                1
            ],
            "name" : "RootNode (model correction matrix)"
        },
        {
            "children" : [
                2
            ],
            "name" : "RootNode (gltf orientation matrix)",
            "rotation" : [
                -0.7071068286895752,
                0,
                0,
                0.7071068286895752
            ]
        }
    ],
    "materials" : [
        {
            "doubleSided" : true,
            "emissiveFactor" : [
                0,
                0,
                0
            ],
            "name" : "material_0",
            "pbrMetallicRoughness" : {
                "baseColorTexture" : {
                    "index" : 0,
                    "texCoord" : 0
                },
                "metallicRoughnessTexture" : {
                    "index" : 1,
                    "texCoord" : 0
                }
            }
        }
    ],
    "meshes" : [
        {
            "name" : "Mesh_0.009",
            "primitives" : [
                {
                    "attributes" : {
                        "POSITION" : 0,
                        "NORMAL" : 1,
                        "TEXCOORD_0" : 2
                    },
                    "indices" : 3,
                    "material" : 0
                }
            ]
        }
    ],
    "textures" : [
        {
            "source" : 0
        },
        {
            "source" : 1
        }
    ],
    "images" : [
        {
            "bufferView" : 4,
            "mimeType" : "image/png",
            "name" : "material_0_baseColor"
        },
        {
            "bufferView" : 5,
            "mimeType" : "image/png",
            "name" : "material_0_metallicRoughness"
        }
    ],
    "accessors" : [
        {
            "bufferView" : 0,
            "componentType" : 5126,
            "count" : 31369,
            "max" : [
                1.1983180046081543,
                2.455317974090576,
                0.043455999344587326
            ],
            "min" : [
                -1.1983180046081543,
                -2.4460880756378174,
                -0.2320919930934906
            ],
            "type" : "VEC3"
        },
        {
            "bufferView" : 1,
            "componentType" : 5126,
            "count" : 31369,
            "type" : "VEC3"
        },
        {
            "bufferView" : 2,
            "componentType" : 5126,
            "count" : 31369,
            "type" : "VEC2"
        },
        {
            "bufferView" : 3,
            "componentType" : 5123,
            "count" : 109680,
            "type" : "SCALAR"
        }
    ],
    "bufferViews" : [
        {
            "buffer" : 0,
            "byteLength" : 376428,
            "byteOffset" : 0
        },
        {
            "buffer" : 0,
            "byteLength" : 376428,
            "byteOffset" : 376428
        },
        {
            "buffer" : 0,
            "byteLength" : 250952,
            "byteOffset" : 752856
        },
        {
            "buffer" : 0,
            "byteLength" : 219360,
            "byteOffset" : 1003808
        },
        {
            "buffer" : 0,
            "byteLength" : 263563,
            "byteOffset" : 1223168
        },
        {
            "buffer" : 0,
            "byteLength" : 36240,
            "byteOffset" : 1486732
        }
    ],
    "buffers" : [
        {
            "byteLength" : 1522972,
            "uri" : "data:application/octet-stream;base64,"
        }
    ]
}
