{
    "asset" : {
        "generator" : "Khronos glTF Blender I/O v1.3.48",
        "version" : "2.0"
    },
    "scene" : 0,
    "scenes" : [
        {
            "name" : "Scene",
            "nodes" : [
                2
            ]
        }
    ],
    "nodes" : [
        {
            "mesh" : 0,
            "name" : "Mesh_0.010",
            "rotation" : [
                -0.7093196511268616,
                0.15689021348953247,
                0.1640428602695465,
                0.6673388481140137
            ],
            "translation" : [
                0.36683639883995056,
                0.39165371656417847,
                85.87763214111328
            ]
        },
        {
            "children" : [
                0
            ],
            "name" : "efb02291ae594c60b0418252efbf5f02.obj.cleaner.materialmerger.gle"
        },
        {
            "children" : [
                1
            ],
            "name" : "RootNode (model correction matrix)",
            "rotation" : [
                0,
                -0.21351221203804016,
                0,
                0.976940393447876
            ],
            "translation" : [
                49.36393737792969,
                0,
                10.628254890441895
            ]
        }
    ],
    "materials" : [
        {
            "alphaMode" : "BLEND",
            "doubleSided" : true,
            "emissiveFactor" : [
                0,
                0,
                0
            ],
            "name" : "lambert2SG",
            "pbrMetallicRoughness" : {
                "baseColorTexture" : {
                    "index" : 0,
                    "texCoord" : 0
                },
                "metallicFactor" : 0,
                "roughnessFactor" : 0.6000000238418579
            }
        }
    ],
    "meshes" : [
        {
            "name" : "Mesh_0.010",
            "primitives" : [
                {
                    "attributes" : {
                        "POSITION" : 0,
                        "NORMAL" : 1,
                        "TEXCOORD_0" : 2
                    },
                    "indices" : 3,
                    "material" : 0
                }
            ]
        }
    ],
    "textures" : [
        {
            "source" : 0
        }
    ],
    "images" : [
        {
            "bufferView" : 4,
            "mimeType" : "image/png",
            "name" : "lambert2SG_baseColor"
        }
    ],
    "accessors" : [
        {
            "bufferView" : 0,
            "componentType" : 5126,
            "count" : 129,
            "max" : [
                3.839012861251831,
                21.656604766845703,
                110.96833038330078
            ],
            "min" : [
                -3.8390932083129883,
                -21.656635284423828,
                -46.22713851928711
            ],
            "type" : "VEC3"
        },
        {
            "bufferView" : 1,
            "componentType" : 5126,
            "count" : 129,
            "type" : "VEC3"
        },
        {
            "bufferView" : 2,
            "componentType" : 5126,
            "count" : 129,
            "type" : "VEC2"
        },
        {
            "bufferView" : 3,
            "componentType" : 5123,
            "count" : 228,
            "type" : "SCALAR"
        }
    ],
    "bufferViews" : [
        {
            "buffer" : 0,
            "byteLength" : 1548,
            "byteOffset" : 0
        },
        {
            "buffer" : 0,
            "byteLength" : 1548,
            "byteOffset" : 1548
        },
        {
            "buffer" : 0,
            "byteLength" : 1032,
            "byteOffset" : 3096
        },
        {
            "buffer" : 0,
            "byteLength" : 456,
            "byteOffset" : 4128
        },
        {
            "buffer" : 0,
            "byteLength" : 134636,
            "byteOffset" : 4584
        }
    ],
    "buffers" : [
        {
            "byteLength" : 139220,
            "uri" : "data:application/octet-stream;base64,"
        }
    ]
}
