{
    "asset" : {
        "generator" : "Khronos glTF Blender I/O v1.3.48",
        "version" : "2.0"
    },
    "scene" : 0,
    "scenes" : [
        {
            "name" : "Scene",
            "nodes" : [
                0,
                2
            ]
        }
    ],
    "nodes" : [
        {
            "mesh" : 0,
            "name" : "Mesh_0.002",
            "scale" : [
                0.13954824209213257,
                0.13954824209213257,
                0.13954824209213257
            ],
            "translation" : [
                0,
                0,
                0.21773482859134674
            ]
        },
        {
            "mesh" : 1,
            "name" : "Mesh_1",
            "translation" : [
                -1.7158219814300537,
                6.1930952072143555,
                8.629087448120117
            ]
        },
        {
            "children" : [
                1
            ],
            "name" : "node_id36_2",
            "rotation" : [
                0.04513552412390709,
                -0.8833131194114685,
                -0.45842909812927246,
                0.08696847409009933
            ],
            "scale" : [
                0.0241452157497406,
                0.02414521761238575,
                0.02414522133767605
            ],
            "translation" : [
                0.03392288088798523,
                0.18032237887382507,
                0.29247617721557617
            ]
        }
    ],
    "materials" : [
        {
            "doubleSided" : true,
            "name" : "material.001",
            "pbrMetallicRoughness" : {}
        },
        {
            "doubleSided" : true,
            "name" : "material_1",
            "pbrMetallicRoughness" : {}
        }
    ],
    "meshes" : [
        {
            "name" : "Mesh_0.002",
            "primitives" : [
                {
                    "attributes" : {
                        "POSITION" : 0,
                        "NORMAL" : 1,
                        "TEXCOORD_0" : 2,
                        "TEXCOORD_1" : 3,
                        "TEXCOORD_2" : 4
                    },
                    "indices" : 5,
                    "material" : 0
                }
            ]
        },
        {
            "name" : "Mesh_1",
            "primitives" : [
                {
                    "attributes" : {
                        "POSITION" : 6,
                        "NORMAL" : 7,
                        "TEXCOORD_0" : 8,
                        "TEXCOORD_1" : 9,
                        "TEXCOORD_2" : 10
                    },
                    "indices" : 11,
                    "material" : 1
                }
            ]
        }
    ],
    "accessors" : [
        {
            "bufferView" : 0,
            "componentType" : 5126,
            "count" : 12099,
            "max" : [
                0.99034583568573,
                3.4169623851776123,
                1.0974795818328857
            ],
            "min" : [
                -0.9032919406890869,
                9.117089211940765e-05,
                -0.5838888883590698
            ],
            "type" : "VEC3"
        },
        {
            "bufferView" : 1,
            "componentType" : 5126,
            "count" : 12099,
            "type" : "VEC3"
        },
        {
            "bufferView" : 2,
            "componentType" : 5126,
            "count" : 12099,
            "type" : "VEC2"
        },
        {
            "bufferView" : 3,
            "componentType" : 5126,
            "count" : 12099,
            "type" : "VEC2"
        },
        {
            "bufferView" : 4,
            "componentType" : 5126,
            "count" : 12099,
            "type" : "VEC2"
        },
        {
            "bufferView" : 5,
            "componentType" : 5123,
            "count" : 59280,
            "type" : "SCALAR"
        },
        {
            "bufferView" : 6,
            "componentType" : 5126,
            "count" : 3958,
            "max" : [
                6.024054050445557,
                5.079191207885742,
                3.867995500564575
            ],
            "min" : [
                -6.042109966278076,
                0.009041190147399902,
                -5.036324501037598
            ],
            "type" : "VEC3"
        },
        {
            "bufferView" : 7,
            "componentType" : 5126,
            "count" : 3958,
            "type" : "VEC3"
        },
        {
            "bufferView" : 8,
            "componentType" : 5126,
            "count" : 3958,
            "type" : "VEC2"
        },
        {
            "bufferView" : 9,
            "componentType" : 5126,
            "count" : 3958,
            "type" : "VEC2"
        },
        {
            "bufferView" : 10,
            "componentType" : 5126,
            "count" : 3958,
            "type" : "VEC2"
        },
        {
            "bufferView" : 11,
            "componentType" : 5123,
            "count" : 20172,
            "type" : "SCALAR"
        }
    ],
    "bufferViews" : [
        {
            "buffer" : 0,
            "byteLength" : 145188,
            "byteOffset" : 0
        },
        {
            "buffer" : 0,
            "byteLength" : 145188,
            "byteOffset" : 145188
        },
        {
            "buffer" : 0,
            "byteLength" : 96792,
            "byteOffset" : 290376
        },
        {
            "buffer" : 0,
            "byteLength" : 96792,
            "byteOffset" : 387168
        },
        {
            "buffer" : 0,
            "byteLength" : 96792,
            "byteOffset" : 483960
        },
        {
            "buffer" : 0,
            "byteLength" : 118560,
            "byteOffset" : 580752
        },
        {
            "buffer" : 0,
            "byteLength" : 47496,
            "byteOffset" : 699312
        },
        {
            "buffer" : 0,
            "byteLength" : 47496,
            "byteOffset" : 746808
        },
        {
            "buffer" : 0,
            "byteLength" : 31664,
            "byteOffset" : 794304
        },
        {
            "buffer" : 0,
            "byteLength" : 31664,
            "byteOffset" : 825968
        },
        {
            "buffer" : 0,
            "byteLength" : 31664,
            "byteOffset" : 857632
        },
        {
            "buffer" : 0,
            "byteLength" : 40344,
            "byteOffset" : 889296
        }
    ],
    "buffers" : [
        {
            "byteLength" : 929640,
            "uri" : "data:application/octet-stream;base64,"
        }
    ]
}
