{
    "asset" : {
        "generator" : "Khronos glTF Blender I/O v1.3.48",
        "version" : "2.0"
    },
    "scene" : 0,
    "scenes" : [
        {
            "name" : "Scene",
            "nodes" : [
                3
            ]
        }
    ],
    "nodes" : [
        {
            "mesh" : 0,
            "name" : "Mesh_0.008"
        },
        {
            "children" : [
                0
            ],
            "name" : "montre.obj.cleaner.materialmerger.gles"
        },
        {
            "children" : [
                1
            ],
            "name" : "RootNode (model correction matrix)"
        },
        {
            "children" : [
                2
            ],
            "name" : "RootNode (gltf orientation matrix)",
            "rotation" : [
                -1,
                0,
                0,
                0
            ]
        }
    ],
    "materials" : [
        {
            "doubleSided" : true,
            "emissiveFactor" : [
                0,
                0,
                0
            ],
            "name" : "initialShadingGroup",
            "normalTexture" : {
                "index" : 0,
                "texCoord" : 0
            },
            "pbrMetallicRoughness" : {
                "baseColorTexture" : {
                    "index" : 1,
                    "texCoord" : 0
                },
                "metallicRoughnessTexture" : {
                    "index" : 2,
                    "texCoord" : 0
                }
            }
        }
    ],
    "meshes" : [
        {
            "name" : "Mesh_0.008",
            "primitives" : [
                {
                    "attributes" : {
                        "POSITION" : 0,
                        "NORMAL" : 1,
                        "TEXCOORD_0" : 2
                    },
                    "indices" : 3,
                    "material" : 0
                }
            ]
        }
    ],
    "textures" : [
        {
            "source" : 0
        },
        {
            "source" : 1
        },
        {
            "source" : 2
        }
    ],
    "images" : [
        {
            "bufferView" : 4,
            "mimeType" : "image/png",
            "name" : "initialShadingGroup_normal"
        },
        {
            "bufferView" : 5,
            "mimeType" : "image/png",
            "name" : "initialShadingGroup_baseColor"
        },
        {
            "bufferView" : 6,
            "mimeType" : "image/png",
            "name" : "initialShadingGroup_metallicRoughness"
        }
    ],
    "accessors" : [
        {
            "bufferView" : 0,
            "componentType" : 5126,
            "count" : 6141,
            "max" : [
                2.8592450618743896,
                0.4667850136756897,
                13.58646011352539
            ],
            "min" : [
                -2.63338303565979,
                -0.32014000415802,
                -18.710933685302734
            ],
            "type" : "VEC3"
        },
        {
            "bufferView" : 1,
            "componentType" : 5126,
            "count" : 6141,
            "type" : "VEC3"
        },
        {
            "bufferView" : 2,
            "componentType" : 5126,
            "count" : 6141,
            "type" : "VEC2"
        },
        {
            "bufferView" : 3,
            "componentType" : 5123,
            "count" : 10203,
            "type" : "SCALAR"
        }
    ],
    "bufferViews" : [
        {
            "buffer" : 0,
            "byteLength" : 73692,
            "byteOffset" : 0
        },
        {
            "buffer" : 0,
            "byteLength" : 73692,
            "byteOffset" : 73692
        },
        {
            "buffer" : 0,
            "byteLength" : 49128,
            "byteOffset" : 147384
        },
        {
            "buffer" : 0,
            "byteLength" : 20406,
            "byteOffset" : 196512
        },
        {
            "buffer" : 0,
            "byteLength" : 245062,
            "byteOffset" : 216920
        },
        {
            "buffer" : 0,
            "byteLength" : 1593186,
            "byteOffset" : 461984
        },
        {
            "buffer" : 0,
            "byteLength" : 594230,
            "byteOffset" : 2055172
        }
    ],
    "buffers" : [
        {
            "byteLength" : 2649404,
            "uri" : "data:application/octet-stream;base64,"
        }
    ]
}
