{
    "asset" : {
        "generator" : "Khronos glTF Blender I/O v1.3.48",
        "version" : "2.0"
    },
    "scene" : 0,
    "scenes" : [
        {
            "name" : "Scene",
            "nodes" : [
                7
            ]
        }
    ],
    "nodes" : [
        {
            "mesh" : 0,
            "name" : "red-baron-grass-ornamental-Va7qqJC-600_red-baron-grass-ornament"
        },
        {
            "children" : [
                0
            ],
            "name" : "red-baron-grass-ornamental-Va7qqJC-600",
            "rotation" : [
                -0.7071068286895752,
                0,
                0,
                0.7071067094802856
            ],
            "scale" : [
                100,
                100,
                100
            ],
            "translation" : [
                183.7110595703125,
                0,
                86.27213287353516
            ]
        },
        {
            "mesh" : 1,
            "name" : "red-baron-grass-ornamental-Va7qqJC-600.001_red-baron-grass-orna"
        },
        {
            "children" : [
                2
            ],
            "name" : "red-baron-grass-ornamental-Va7qqJC-600.001",
            "rotation" : [
                -0.7071068286895752,
                0,
                0,
                0.7071067094802856
            ],
            "scale" : [
                100,
                100,
                100
            ],
            "translation" : [
                183.7110595703125,
                0,
                86.27213287353516
            ]
        },
        {
            "children" : [
                1,
                3
            ],
            "name" : "RootNode"
        },
        {
            "children" : [
                4
            ],
            "name" : "Grass.fbx",
            "rotation" : [
                0.7071068286895752,
                0,
                0,
                0.7071068286895752
            ]
        },
        {
            "children" : [
                5
            ],
            "name" : "RootNode (model correction matrix)"
        },
        {
            "children" : [
                6
            ],
            "name" : "RootNode (gltf orientation matrix)",
            "rotation" : [
                -0.7071068286895752,
                0,
                0,
                0.7071068286895752
            ],
            "scale" : [
                0.4086649417877197,
                0.4086649417877197,
                0.4086649417877197
            ]
        }
    ],
    "materials" : [
        {
            "alphaCutoff" : 0.20903201401233673,
            "alphaMode" : "MASK",
            "doubleSided" : true,
            "emissiveFactor" : [
                0,
                0,
                0
            ],
            "name" : "red-baron-grass-ornamental-Va7qqJC-600",
            "pbrMetallicRoughness" : {
                "baseColorTexture" : {
                    "index" : 0,
                    "texCoord" : 0
                },
                "metallicFactor" : 0,
                "roughnessFactor" : 0.9577051401138306
            }
        }
    ],
    "meshes" : [
        {
            "name" : "red-baron-grass-ornamental-Va7qqJC-600_red-baron-grass-ornament",
            "primitives" : [
                {
                    "attributes" : {
                        "POSITION" : 0,
                        "NORMAL" : 1,
                        "TEXCOORD_0" : 2
                    },
                    "indices" : 3,
                    "material" : 0
                }
            ]
        },
        {
            "name" : "red-baron-grass-ornamental-Va7qqJC-600.001_red-baron-grass-orna",
            "primitives" : [
                {
                    "attributes" : {
                        "POSITION" : 4,
                        "NORMAL" : 5,
                        "TEXCOORD_0" : 6
                    },
                    "indices" : 7,
                    "material" : 0
                }
            ]
        }
    ],
    "textures" : [
        {
            "source" : 0
        }
    ],
    "images" : [
        {
            "bufferView" : 4,
            "mimeType" : "image/png",
            "name" : "red-baron-grass-ornamental-Va7qqJC-600_baseColor"
        }
    ],
    "accessors" : [
        {
            "bufferView" : 0,
            "componentType" : 5126,
            "count" : 282,
            "max" : [
                0.5227136015892029,
                3.1083672046661377,
                1.089991569519043
            ],
            "min" : [
                -3.8484318256378174,
                -1.3183448314666748,
                0
            ],
            "type" : "VEC3"
        },
        {
            "bufferView" : 1,
            "componentType" : 5126,
            "count" : 282,
            "type" : "VEC3"
        },
        {
            "bufferView" : 2,
            "componentType" : 5126,
            "count" : 282,
            "type" : "VEC2"
        },
        {
            "bufferView" : 3,
            "componentType" : 5123,
            "count" : 300,
            "type" : "SCALAR"
        },
        {
            "bufferView" : 5,
            "componentType" : 5126,
            "count" : 280,
            "max" : [
                0.5310492515563965,
                3.167496681213379,
                1.089991569519043
            ],
            "min" : [
                -4.04447078704834,
                -1.283027172088623,
                0
            ],
            "type" : "VEC3"
        },
        {
            "bufferView" : 6,
            "componentType" : 5126,
            "count" : 280,
            "type" : "VEC3"
        },
        {
            "bufferView" : 7,
            "componentType" : 5126,
            "count" : 280,
            "type" : "VEC2"
        },
        {
            "bufferView" : 8,
            "componentType" : 5123,
            "count" : 300,
            "type" : "SCALAR"
        }
    ],
    "bufferViews" : [
        {
            "buffer" : 0,
            "byteLength" : 3384,
            "byteOffset" : 0
        },
        {
            "buffer" : 0,
            "byteLength" : 3384,
            "byteOffset" : 3384
        },
        {
            "buffer" : 0,
            "byteLength" : 2256,
            "byteOffset" : 6768
        },
        {
            "buffer" : 0,
            "byteLength" : 600,
            "byteOffset" : 9024
        },
        {
            "buffer" : 0,
            "byteLength" : 407073,
            "byteOffset" : 9624
        },
        {
            "buffer" : 0,
            "byteLength" : 3360,
            "byteOffset" : 416700
        },
        {
            "buffer" : 0,
            "byteLength" : 3360,
            "byteOffset" : 420060
        },
        {
            "buffer" : 0,
            "byteLength" : 2240,
            "byteOffset" : 423420
        },
        {
            "buffer" : 0,
            "byteLength" : 600,
            "byteOffset" : 425660
        }
    ],
    "buffers" : [
        {
            "byteLength" : 426260,
            "uri" : "data:application/octet-stream;base64,"
        }
    ]
}
