{
    "asset" : {
        "generator" : "Khronos glTF Blender I/O v1.3.48",
        "version" : "2.0"
    },
    "scene" : 0,
    "scenes" : [
        {
            "name" : "Scene",
            "nodes" : [
                3
            ]
        }
    ],
    "nodes" : [
        {
            "mesh" : 0,
            "name" : "Mesh_0.005"
        },
        {
            "children" : [
                0
            ],
            "name" : "Musca_domestica_2.obj.cleaner.materialmerger.gles"
        },
        {
            "children" : [
                1
            ],
            "name" : "RootNode (model correction matrix)",
            "rotation" : [
                -0.7576465606689453,
                -0.026578880846500397,
                -0.022862976416945457,
                0.6517227292060852
            ],
            "translation" : [
                -0.07448603957891464,
                1.5996347665786743,
                0.60873943567276
            ]
        },
        {
            "children" : [
                2
            ],
            "name" : "RootNode (gltf orientation matrix)",
            "rotation" : [
                -0.7071068286895752,
                0,
                0,
                0.7071068286895752
            ]
        }
    ],
    "materials" : [
        {
            "doubleSided" : true,
            "name" : "Musca_domestica_2.1001",
            "pbrMetallicRoughness" : {}
        }
    ],
    "meshes" : [
        {
            "name" : "Mesh_0.005",
            "primitives" : [
                {
                    "attributes" : {
                        "POSITION" : 0,
                        "NORMAL" : 1,
                        "TEXCOORD_0" : 2
                    },
                    "indices" : 3,
                    "material" : 0
                }
            ]
        }
    ],
    "accessors" : [
        {
            "bufferView" : 0,
            "componentType" : 5126,
            "count" : 53511,
            "max" : [
                3.620115041732788,
                3.82592511177063,
                3.0531389713287354
            ],
            "min" : [
                -4.7470598220825195,
                -1.739577054977417,
                -3.85214900970459
            ],
            "type" : "VEC3"
        },
        {
            "bufferView" : 1,
            "componentType" : 5126,
            "count" : 53511,
            "type" : "VEC3"
        },
        {
            "bufferView" : 2,
            "componentType" : 5126,
            "count" : 53511,
            "type" : "VEC2"
        },
        {
            "bufferView" : 3,
            "componentType" : 5123,
            "count" : 290448,
            "type" : "SCALAR"
        }
    ],
    "bufferViews" : [
        {
            "buffer" : 0,
            "byteLength" : 642132,
            "byteOffset" : 0
        },
        {
            "buffer" : 0,
            "byteLength" : 642132,
            "byteOffset" : 642132
        },
        {
            "buffer" : 0,
            "byteLength" : 428088,
            "byteOffset" : 1284264
        },
        {
            "buffer" : 0,
            "byteLength" : 580896,
            "byteOffset" : 1712352
        }
    ],
    "buffers" : [
        {
            "byteLength" : 2293248,
            "uri" : "data:application/octet-stream;base64,"
        }
    ]
}
