{
    "asset" : {
        "generator" : "Khronos glTF Blender I/O v1.3.48",
        "version" : "2.0"
    },
    "scene" : 0,
    "scenes" : [
        {
            "name" : "Scene",
            "nodes" : [
                0,
                1,
                2,
                3,
                4,
                5
            ]
        }
    ],
    "nodes" : [
        {
            "mesh" : 0,
            "name" : "frame",
            "rotation" : [
                0.7071068286895752,
                0,
                0,
                0.7071067094802856
            ],
            "translation" : [
                -0.40195995569229126,
                0.8580343127250671,
                0.6797011494636536
            ]
        },
        {
            "mesh" : 1,
            "name" : "axle.001",
            "rotation" : [
                0.7071068286895752,
                0,
                0,
                0.7071067094802856
            ],
            "translation" : [
                -0.5119655132293701,
                0.8534305691719055,
                0.6650534868240356
            ]
        },
        {
            "mesh" : 2,
            "name" : "Lrim.001",
            "rotation" : [
                0.7071068286895752,
                0,
                0,
                0.7071067094802856
            ],
            "translation" : [
                -0.42927056550979614,
                0.8802394866943359,
                0.6789945960044861
            ]
        },
        {
            "mesh" : 3,
            "name" : "Ltire.001",
            "rotation" : [
                0.7071068286895752,
                0,
                0,
                0.7071067094802856
            ],
            "translation" : [
                -0.4251474142074585,
                0.8543480038642883,
                0.6792439818382263
            ]
        },
        {
            "mesh" : 4,
            "name" : "Rrim.001",
            "rotation" : [
                0.7071068286895752,
                0,
                0,
                0.7071067094802856
            ],
            "translation" : [
                -0.35072511434555054,
                0.8157368898391724,
                0.6812692880630493
            ]
        },
        {
            "mesh" : 5,
            "name" : "Rtire.001",
            "rotation" : [
                0.7071068286895752,
                0,
                0,
                0.7071067094802856
            ],
            "translation" : [
                -0.3691500425338745,
                0.8214638829231262,
                0.6361724734306335
            ]
        }
    ],
    "materials" : [
        {
            "doubleSided" : true,
            "emissiveFactor" : [
                0,
                0,
                0
            ],
            "name" : "default",
            "pbrMetallicRoughness" : {
                "baseColorFactor" : [
                    1,
                    1,
                    1,
                    1
                ],
                "metallicFactor" : 1,
                "roughnessFactor" : 1
            }
        },
        {
            "doubleSided" : true,
            "emissiveFactor" : [
                0,
                0,
                0
            ],
            "name" : "default.001",
            "pbrMetallicRoughness" : {
                "baseColorFactor" : [
                    1,
                    1,
                    1,
                    1
                ],
                "metallicFactor" : 1,
                "roughnessFactor" : 1
            }
        }
    ],
    "meshes" : [
        {
            "name" : "frame",
            "primitives" : [
                {
                    "attributes" : {
                        "POSITION" : 0,
                        "NORMAL" : 1
                    },
                    "indices" : 2,
                    "material" : 0
                }
            ]
        },
        {
            "name" : "axle.001",
            "primitives" : [
                {
                    "attributes" : {
                        "POSITION" : 3,
                        "NORMAL" : 4
                    },
                    "indices" : 5,
                    "material" : 1
                }
            ]
        },
        {
            "name" : "Lrim.001",
            "primitives" : [
                {
                    "attributes" : {
                        "POSITION" : 6,
                        "NORMAL" : 7
                    },
                    "indices" : 8,
                    "material" : 1
                }
            ]
        },
        {
            "name" : "Ltire.001",
            "primitives" : [
                {
                    "attributes" : {
                        "POSITION" : 9,
                        "NORMAL" : 10
                    },
                    "indices" : 11,
                    "material" : 1
                }
            ]
        },
        {
            "name" : "Rrim.001",
            "primitives" : [
                {
                    "attributes" : {
                        "POSITION" : 12,
                        "NORMAL" : 13
                    },
                    "indices" : 14,
                    "material" : 1
                }
            ]
        },
        {
            "name" : "Rtire.001",
            "primitives" : [
                {
                    "attributes" : {
                        "POSITION" : 15,
                        "NORMAL" : 16
                    },
                    "indices" : 17,
                    "material" : 1
                }
            ]
        }
    ],
    "accessors" : [
        {
            "bufferView" : 0,
            "componentType" : 5126,
            "count" : 1329,
            "max" : [
                0.843999981880188,
                0.8425279259681702,
                0
            ],
            "min" : [
                -0.843999981880188,
                -0.7322562336921692,
                -4.406152725219727
            ],
            "type" : "VEC3"
        },
        {
            "bufferView" : 1,
            "componentType" : 5126,
            "count" : 1329,
            "type" : "VEC3"
        },
        {
            "bufferView" : 2,
            "componentType" : 5123,
            "count" : 7890,
            "type" : "SCALAR"
        },
        {
            "bufferView" : 3,
            "componentType" : 5126,
            "count" : 64,
            "max" : [
                1.011549711227417,
                -0.42814189195632935,
                -0.4187571704387665
            ],
            "min" : [
                -1.0117231607437134,
                -0.4789108335971832,
                -0.46952611207962036
            ],
            "type" : "VEC3"
        },
        {
            "bufferView" : 4,
            "componentType" : 5126,
            "count" : 64,
            "type" : "VEC3"
        },
        {
            "bufferView" : 5,
            "componentType" : 5123,
            "count" : 372,
            "type" : "SCALAR"
        },
        {
            "bufferView" : 6,
            "componentType" : 5126,
            "count" : 1046,
            "max" : [
                1.0615438222885132,
                -0.20569905638694763,
                -0.19631433486938477
            ],
            "min" : [
                0.831996738910675,
                -0.7013536691665649,
                -0.6919689178466797
            ],
            "type" : "VEC3"
        },
        {
            "bufferView" : 7,
            "componentType" : 5126,
            "count" : 1046,
            "type" : "VEC3"
        },
        {
            "bufferView" : 8,
            "componentType" : 5123,
            "count" : 6132,
            "type" : "SCALAR"
        },
        {
            "bufferView" : 9,
            "componentType" : 5126,
            "count" : 1056,
            "max" : [
                1.0913549661636353,
                -0.04076813906431198,
                -0.03138340637087822
            ],
            "min" : [
                0.860815703868866,
                -0.8662846088409424,
                -0.8568998575210571
            ],
            "type" : "VEC3"
        },
        {
            "bufferView" : 10,
            "componentType" : 5126,
            "count" : 1056,
            "type" : "VEC3"
        },
        {
            "bufferView" : 11,
            "componentType" : 5123,
            "count" : 6336,
            "type" : "SCALAR"
        },
        {
            "bufferView" : 12,
            "componentType" : 5126,
            "count" : 1057,
            "max" : [
                -0.8341023921966553,
                -0.20569907128810883,
                -0.19631433486938477
            ],
            "min" : [
                -1.0636495351791382,
                -0.7013536691665649,
                -0.6919689178466797
            ],
            "type" : "VEC3"
        },
        {
            "bufferView" : 13,
            "componentType" : 5126,
            "count" : 1057,
            "type" : "VEC3"
        },
        {
            "bufferView" : 14,
            "componentType" : 5123,
            "count" : 6132,
            "type" : "SCALAR"
        },
        {
            "bufferView" : 15,
            "componentType" : 5126,
            "count" : 1056,
            "max" : [
                -0.8631287813186646,
                -0.04076813906431198,
                -0.03138340637087822
            ],
            "min" : [
                -1.0936681032180786,
                -0.8662846088409424,
                -0.8568998575210571
            ],
            "type" : "VEC3"
        },
        {
            "bufferView" : 16,
            "componentType" : 5126,
            "count" : 1056,
            "type" : "VEC3"
        },
        {
            "bufferView" : 17,
            "componentType" : 5123,
            "count" : 6336,
            "type" : "SCALAR"
        }
    ],
    "bufferViews" : [
        {
            "buffer" : 0,
            "byteLength" : 15948,
            "byteOffset" : 0
        },
        {
            "buffer" : 0,
            "byteLength" : 15948,
            "byteOffset" : 15948
        },
        {
            "buffer" : 0,
            "byteLength" : 15780,
            "byteOffset" : 31896
        },
        {
            "buffer" : 0,
            "byteLength" : 768,
            "byteOffset" : 47676
        },
        {
            "buffer" : 0,
            "byteLength" : 768,
            "byteOffset" : 48444
        },
        {
            "buffer" : 0,
            "byteLength" : 744,
            "byteOffset" : 49212
        },
        {
            "buffer" : 0,
            "byteLength" : 12552,
            "byteOffset" : 49956
        },
        {
            "buffer" : 0,
            "byteLength" : 12552,
            "byteOffset" : 62508
        },
        {
            "buffer" : 0,
            "byteLength" : 12264,
            "byteOffset" : 75060
        },
        {
            "buffer" : 0,
            "byteLength" : 12672,
            "byteOffset" : 87324
        },
        {
            "buffer" : 0,
            "byteLength" : 12672,
            "byteOffset" : 99996
        },
        {
            "buffer" : 0,
            "byteLength" : 12672,
            "byteOffset" : 112668
        },
        {
            "buffer" : 0,
            "byteLength" : 12684,
            "byteOffset" : 125340
        },
        {
            "buffer" : 0,
            "byteLength" : 12684,
            "byteOffset" : 138024
        },
        {
            "buffer" : 0,
            "byteLength" : 12264,
            "byteOffset" : 150708
        },
        {
            "buffer" : 0,
            "byteLength" : 12672,
            "byteOffset" : 162972
        },
        {
            "buffer" : 0,
            "byteLength" : 12672,
            "byteOffset" : 175644
        },
        {
            "buffer" : 0,
            "byteLength" : 12672,
            "byteOffset" : 188316
        }
    ],
    "buffers" : [
        {
            "byteLength" : 200988,
            "uri" : "data:application/octet-stream;base64,"
        }
    ]
}
